<svg xmlns="http://www.w3.org/2000/svg" width="34" height="42" viewBox="0 0 34 42" role="img" aria-label="Base station marker">
  <rect x="4" y="0.5" width="26" height="13" rx="6.5" ry="6.5" fill="#16324f" stroke="#2c6fb7" stroke-width="1"/>
  <text x="17" y="9.5" text-anchor="middle" font-family="Arial, sans-serif" font-size="8" font-weight="800" fill="#ffffff">Base</text>
  <circle cx="17" cy="27" r="15" fill="#16324f" stroke="#ffffff" stroke-width="2"/>
  <path d="M17 19.4c-3.25 0-5.9 2.65-5.9 5.9a1 1 0 1 0 2 0 3.9 3.9 0 0 1 7.8 0 1 1 0 1 0 2 0c0-3.25-2.65-5.9-5.9-5.9z" fill="#ffffff"/>
  <path d="M17 22.6a1 1 0 0 1 1 1v5.2a1 1 0 1 1-2 0v-5.2a1 1 0 0 1 1-1z" fill="#ffffff"/>
  <circle cx="17" cy="30.5" r="1.5" fill="#ffffff"/>
</svg>
